<svg xmlns="http://www.w3.org/2000/svg" width="520" height="292" viewBox="0 0 520 292" font-family="'JetBrains Mono', 'Cascadia Code', 'Segoe UI', monospace">
<rect x="1" y="1" width="518" height="290" rx="16" fill="#16161e" stroke="#7aa2f7" stroke-opacity="0.25"/>
<rect x="1" y="1" width="518" height="4" rx="2" fill="#7aa2f7" fill-opacity="0.6"/>
<text x="26" y="42" font-size="20" font-weight="700" fill="#7aa2f7">AnonymoDGH</text>
<text x="26" y="62" font-size="11" fill="#565f89">github stats · generated with python stdlib</text>
<rect x="26" y="82" width="146" height="84" rx="12" fill="#7aa2f7" fill-opacity="0.06" stroke="#7aa2f7" stroke-opacity="0.12"/>
<text x="99" y="122" font-size="24" font-weight="700" fill="#e6e9f5" text-anchor="middle">408</text>
<text x="99" y="144" font-size="10" fill="#565f89" text-anchor="middle" letter-spacing="1.5">COMMITS</text>
<rect x="184" y="82" width="146" height="84" rx="12" fill="#7aa2f7" fill-opacity="0.06" stroke="#7aa2f7" stroke-opacity="0.12"/>
<text x="257" y="122" font-size="24" font-weight="700" fill="#e6e9f5" text-anchor="middle">17</text>
<text x="257" y="144" font-size="10" fill="#565f89" text-anchor="middle" letter-spacing="1.5">STARS</text>
<rect x="342" y="82" width="146" height="84" rx="12" fill="#7aa2f7" fill-opacity="0.06" stroke="#7aa2f7" stroke-opacity="0.12"/>
<text x="415" y="122" font-size="24" font-weight="700" fill="#e6e9f5" text-anchor="middle">113</text>
<text x="415" y="144" font-size="10" fill="#565f89" text-anchor="middle" letter-spacing="1.5">REPOS</text>
<rect x="26" y="178" width="146" height="84" rx="12" fill="#7aa2f7" fill-opacity="0.06" stroke="#7aa2f7" stroke-opacity="0.12"/>
<text x="99" y="218" font-size="24" font-weight="700" fill="#e6e9f5" text-anchor="middle">10</text>
<text x="99" y="240" font-size="10" fill="#565f89" text-anchor="middle" letter-spacing="1.5">FOLLOWERS</text>
<rect x="184" y="178" width="146" height="84" rx="12" fill="#7aa2f7" fill-opacity="0.06" stroke="#7aa2f7" stroke-opacity="0.12"/>
<text x="257" y="218" font-size="24" font-weight="700" fill="#e6e9f5" text-anchor="middle">7</text>
<text x="257" y="240" font-size="10" fill="#565f89" text-anchor="middle" letter-spacing="1.5">PYPI PKGS</text>
<rect x="342" y="178" width="146" height="84" rx="12" fill="#7aa2f7" fill-opacity="0.06" stroke="#7aa2f7" stroke-opacity="0.12"/>
<text x="415" y="218" font-size="24" font-weight="700" fill="#e6e9f5" text-anchor="middle">1</text>
<text x="415" y="240" font-size="10" fill="#565f89" text-anchor="middle" letter-spacing="1.5">NPM PKGS</text>
</svg>